<?xml version="1.0" encoding="utf-8"?>
<!-- Generator: Adobe Illustrator 23.0.0, SVG Export Plug-In . SVG Version: 6.00 Build 0)  -->
<svg version="1.1" id="Livello_1" xmlns="http://www.w3.org/2000/svg" xmlns:xlink="http://www.w3.org/1999/xlink" x="0px" y="0px"
	 viewBox="0 0 512 512" style="enable-background:new 0 0 512 512;" xml:space="preserve">
<style type="text/css">
	.st0{fill:#8B191C;}
	.st1{fill:#FFFFFF;}
	.st2{fill:url(#SVGID_1_);}
	.st3{fill:url(#SVGID_2_);}
	.st4{fill:#ED1E3E;}
	.st5{fill:url(#SVGID_3_);}
	.st6{fill:url(#SVGID_4_);}
	.st7{fill:url(#SVGID_5_);}
	.st8{fill:url(#SVGID_6_);}
	.st9{fill:url(#SVGID_7_);}
	.st10{fill:url(#SVGID_8_);}
	.st11{fill:url(#SVGID_9_);}
	.st12{fill:url(#SVGID_10_);}
</style>
<g>
	<g>
		<circle cx="256.5" cy="255.5" r="248.5"/>
	</g>
	<g>
		<circle class="st0" cx="256.5" cy="255.5" r="234"/>
	</g>
</g>
<g>
	<path class="st1" d="M78.3,300.8c11.7-5.9,10.5-16.3,7.4-27.4C78.4,280.6,71.4,289.6,78.3,300.8z"/>
	<path class="st1" d="M55.9,283.5c0.5,10.6,8.3,24,18.2,22.4C75.9,294,63.9,285.5,55.9,283.5z"/>
	<path class="st1" d="M92.6,326.7c10.7-7.5,8-17.7,3.3-28.2C89.7,306.7,84.2,316.6,92.6,326.7z"/>
	<path class="st1" d="M67.9,312.9c2.1,10.4,11.7,22.5,21.3,19.5C89.2,320.3,76.1,313.6,67.9,312.9z"/>
	<path class="st1" d="M113.8,347.6c9.5-9,5.3-18.6-0.9-28.4C108,328.3,104,338.8,113.8,347.6z"/>
	<path class="st1" d="M87.3,337.6c3.6,10,14.9,20.6,23.9,16.2C109.5,341.8,95.6,337.1,87.3,337.6z"/>
	<path class="st1" d="M137.7,365.1c6.6-11.3,0-19.4-8.7-27C126.8,348.1,125.9,359.4,137.7,365.1z"/>
	<path class="st1" d="M109.5,362.7c6.2,8.7,20,15.7,27.4,9C132,360.7,117.3,360,109.5,362.7z"/>
	<path class="st1" d="M162.7,380.6c6.6-11.3,0-19.4-8.7-27C151.8,363.6,150.9,374.8,162.7,380.6z"/>
	<path class="st1" d="M134.5,378.2c6.2,8.7,20,15.7,27.4,9C157,376.2,142.3,375.5,134.5,378.2z"/>
	<path class="st1" d="M191.3,389.2c3.6-12.5-4.8-18.8-15.1-24C176.5,375.4,178.4,386.6,191.3,389.2z"/>
	<path class="st1" d="M163.4,393.9c8.1,6.9,23.2,10.2,28.8,1.9C184.7,386.3,170.3,389.3,163.4,393.9z"/>
	<path class="st1" d="M219.4,398c3.6-12.5-4.8-18.8-15.1-24C204.6,384.2,206.5,395.4,219.4,398z"/>
	<path class="st1" d="M191.4,402.7c8.1,6.9,23.2,10.2,28.8,1.9C212.8,395.1,198.3,398.1,191.4,402.7z"/>
	<g>
		<path class="st1" d="M455.2,223c-0.3,0.2-0.5,0.1-0.9,0c-0.3-0.1-0.6-0.2-1.1-0.1c-1,0.1-1.5,1.2-1.8,2c-0.1,0.3-0.3,0.7-0.4,0.8
			c-0.2,0.1-0.4,0-0.8-0.4c-0.4-0.4-0.9-0.8-1.6-0.7c-1.3,0.1-1.6,2.3-1.7,3.9c0,0.4-0.1,0.9-0.2,1l0,0l-0.1-0.1
			c-0.3-0.3-0.9-0.7-1.6-0.4c-1,0.5-1.1,2.1-1.2,3.5c0,0.6-0.1,1.3-0.2,1.4l0,0c-0.1,0-0.2-0.1-0.3-0.1c-0.3-0.2-0.7-0.5-1.3-0.4
			c-0.9,0.2-1.1,1.7-1.2,3.1c0,0.4-0.1,0.8-0.1,1c-0.1,0.1-0.1,0.1-0.3,0.1c-0.3,0-0.8-0.1-1.2,0.5c-0.6,0.9-1,2.6-1.2,3.8
			c-0.2,1.6,0.2,2,0.9,2.4l0,0l0.6,0.5c0.1,0.2,0.2,0.3,0.3,0.6c0,0.1,0.1,0.2,0.2,0.3c0.5,0.5,1.7,0.5,2.4,0.4
			c1.1-0.1,3.2-0.7,3.3-1.8c0-0.3,0.1-0.4,1-0.5c0.3,0,0.7,0,1.1-0.1c1.2-0.2,1.9-0.6,2.1-1.1c0.2-0.6-0.2-1.2-0.5-1.6
			c-0.1-0.1-0.2-0.2-0.2-0.3c0.2-0.2,1.5-0.5,2.3-0.6c1.6-0.3,3-0.6,3.3-1.3c0.3-0.8-0.2-1.3-0.5-1.6l-0.2-0.2c0,0,0-0.1,0.1-0.1
			c0.3-0.4,1.3-0.6,2.3-0.8c0.8-0.3,1.6-0.4,2.4-0.7h0c0.6-0.2,1-0.8,1-1.5c0-0.8-0.4-1.4-1.2-1.8c-0.4-0.2-0.5-0.3-0.5-0.4
			c0-0.2,0.4-0.8,0.9-1.4c0.2-0.2,0.4-0.4,0.5-0.7c2-2.6,2-5,0.2-6.7c-1.8-1.7-3.2-0.8-4.1-0.3C455.4,222.9,455.3,222.9,455.2,223z"
			/>
		<path class="st1" d="M430.4,247.8L430.4,247.8l0.8-0.1c0.2,0,0.4,0.1,0.6,0.2c0.1,0.1,0.3,0.1,0.4,0.1c0.7,0,1.5-0.8,1.9-1.4
			c0.6-0.8,1.7-2.6,1-3.4c-0.2-0.3-0.2-0.3,0.4-1c0.2-0.2,0.4-0.5,0.7-0.9c0.7-1,0.9-1.7,0.7-2.2c-0.2-0.6-0.9-0.7-1.4-0.7
			c-0.1,0-0.3,0-0.4-0.1c0-0.3,0.7-1.4,1.1-2c0.9-1.3,1.6-2.4,1.3-3.1c-0.4-0.8-1-0.8-1.4-0.7l-0.3,0c0,0,0,0,0-0.1
			c-0.1-0.5,0.5-1.3,1-2.1c0.4-0.7,0.8-1.4,1.2-2.1h0c0.3-0.5,0.1-1.2-0.3-1.7c-0.5-0.5-1.2-0.7-2-0.4c-0.4,0.2-0.5,0.1-0.6,0.1
			c-0.2-0.1-0.2-0.8-0.3-1.5c0-0.3-0.1-0.5-0.1-0.8c-0.4-3.1-2-4.8-4.4-4.7c-2.4,0.1-2.7,1.6-3,2.6c0,0.1-0.1,0.2-0.1,0.3
			c-0.1,0.3-0.3,0.4-0.6,0.6c-0.3,0.1-0.6,0.3-0.8,0.6c-0.6,0.8-0.2,1.8,0.1,2.6c0.1,0.3,0.3,0.7,0.2,0.8c-0.1,0.2-0.2,0.3-0.8,0.3
			c-0.5,0-1.1,0.1-1.6,0.6c-0.8,1,0.5,2.6,1.5,3.8c0.2,0.3,0.5,0.7,0.6,0.8l0,0l-0.2,0c-0.4,0-1.1,0.1-1.4,0.9
			c-0.4,1,0.7,2.2,1.6,3.2c0.4,0.4,0.8,0.9,0.8,1.1l0,0c0,0-0.2,0-0.3,0.1c-0.3,0-0.8,0.1-1.1,0.6c-0.5,0.7,0.5,1.9,1.3,2.9
			c0.2,0.3,0.5,0.6,0.6,0.8c0,0.1,0,0.1-0.1,0.3c-0.2,0.2-0.6,0.5-0.5,1.2c0.3,1,1.1,2.4,1.8,3.4C429.1,248.1,429.7,248,430.4,247.8
			z"/>
	</g>
	<g>
		<path class="st1" d="M452.2,262.6c-0.4,0.1-0.5,0-0.9-0.2c-0.3-0.2-0.6-0.3-1-0.3c-1-0.1-1.7,0.9-2.2,1.6
			c-0.2,0.3-0.4,0.6-0.5,0.7c-0.2,0.1-0.4,0-0.7-0.5c-0.3-0.4-0.7-0.9-1.5-1c-1.3-0.1-2,2-2.4,3.5c-0.1,0.4-0.3,0.9-0.4,1l0,0
			l-0.1-0.2c-0.3-0.3-0.7-0.9-1.5-0.7c-1.1,0.3-1.5,1.9-1.9,3.2c-0.1,0.5-0.3,1.3-0.4,1.3l0,0c-0.1,0-0.1-0.1-0.2-0.2
			c-0.2-0.2-0.6-0.6-1.2-0.6c-0.9,0-1.4,1.5-1.8,2.8c-0.1,0.4-0.2,0.8-0.3,1c-0.1,0.1-0.1,0.1-0.3,0c-0.3-0.1-0.8-0.2-1.3,0.3
			c-0.7,0.8-1.4,2.4-1.9,3.5c-0.5,1.5-0.1,2,0.4,2.5l0,0l0.5,0.6c0.1,0.2,0.2,0.4,0.2,0.6c0,0.1,0.1,0.3,0.2,0.4
			c0.4,0.6,1.6,0.8,2.3,0.8c1.1,0.1,3.2-0.1,3.5-1.1c0.1-0.3,0.2-0.4,1.1-0.3c0.3,0.1,0.7,0.1,1.1,0.1c1.2,0,1.9-0.2,2.2-0.7
			c0.3-0.5,0-1.2-0.2-1.6c0-0.1-0.2-0.3-0.2-0.4c0.3-0.2,1.6-0.2,2.4-0.2c1.6,0,3,0,3.4-0.7c0.5-0.8,0.1-1.3-0.2-1.7l-0.2-0.3
			c0,0,0-0.1,0.1-0.1c0.3-0.3,1.4-0.3,2.4-0.3c0.8-0.1,1.7-0.1,2.5-0.2l0,0c0.6-0.1,1.1-0.6,1.3-1.3c0.1-0.7-0.1-1.5-0.8-2
			c-0.4-0.3-0.4-0.4-0.4-0.4c0-0.2,0.5-0.7,1.1-1.2c0.2-0.2,0.4-0.4,0.7-0.6c2.4-2.2,2.9-4.5,1.4-6.5c-1.5-2-3-1.4-3.9-1.1
			C452.5,262.5,452.3,262.6,452.2,262.6z"/>
		<path class="st1" d="M423.3,282.5L423.3,282.5l0.8,0.1c0.2,0.1,0.4,0.1,0.6,0.3c0.1,0.1,0.3,0.1,0.4,0.1c0.7,0.1,1.6-0.6,2.1-1
			c0.8-0.7,2.1-2.3,1.6-3.2c-0.1-0.3-0.1-0.4,0.5-0.9c0.3-0.2,0.5-0.4,0.9-0.7c0.8-0.8,1.2-1.5,1.1-2c-0.1-0.6-0.8-0.8-1.2-1
			c-0.1-0.1-0.3-0.1-0.4-0.1c0-0.3,0.9-1.2,1.5-1.7c1.1-1.1,2-2.1,1.9-2.8c-0.2-0.8-0.9-1-1.3-1l-0.3,0c0,0,0,0,0-0.1
			c0-0.5,0.7-1.2,1.4-1.9c0.5-0.7,1.1-1.2,1.5-1.9l0,0c0.3-0.5,0.3-1.2,0-1.7c-0.4-0.6-1.1-0.9-1.9-0.8c-0.4,0.1-0.5,0-0.6,0
			c-0.1-0.1-0.1-0.8-0.1-1.6c0-0.3,0-0.5,0.1-0.8c0.2-3.1-1.1-5-3.5-5.4c-2.3-0.3-3,1.1-3.4,2c-0.1,0.1-0.1,0.2-0.1,0.3
			c-0.2,0.3-0.4,0.4-0.7,0.5c-0.3,0.1-0.6,0.2-0.9,0.5c-0.8,0.6-0.6,1.7-0.4,2.6c0.1,0.3,0.2,0.7,0.1,0.8c-0.1,0.2-0.3,0.2-0.8,0.1
			c-0.5-0.1-1.1-0.1-1.7,0.3c-1,0.8,0,2.7,0.7,4c0.2,0.3,0.4,0.8,0.4,0.9l0,0l-0.2,0c-0.4,0-1.1-0.1-1.5,0.6
			c-0.5,0.9,0.2,2.3,0.9,3.5c0.3,0.5,0.6,1.1,0.6,1.2l0,0c0,0-0.2,0-0.3,0c-0.3,0-0.8,0-1.2,0.4c-0.6,0.6,0.1,2,0.7,3.1
			c0.2,0.3,0.4,0.7,0.4,0.9c0,0.1,0,0.1-0.2,0.2c-0.3,0.2-0.7,0.4-0.7,1.1c0.1,1.1,0.6,2.6,1.1,3.7
			C422,282.4,422.6,282.5,423.3,282.5z"/>
	</g>
	<g>
		<path class="st1" d="M439.5,300c-0.4,0-0.5-0.1-0.8-0.3c-0.2-0.2-0.5-0.4-1-0.5c-1-0.3-1.8,0.6-2.4,1.2c-0.2,0.2-0.5,0.6-0.6,0.6
			c-0.2,0-0.4-0.1-0.6-0.6c-0.2-0.5-0.6-1.1-1.3-1.2c-1.3-0.3-2.3,1.6-3,3c-0.2,0.4-0.4,0.8-0.5,0.9l0,0l-0.1-0.2
			c-0.2-0.4-0.6-1-1.4-0.9c-1.1,0.1-1.8,1.6-2.4,2.9c-0.2,0.5-0.5,1.2-0.7,1.3l0,0c-0.1,0-0.1-0.2-0.2-0.2c-0.2-0.3-0.5-0.7-1.1-0.8
			c-0.9-0.1-1.6,1.3-2.2,2.4c-0.2,0.4-0.4,0.8-0.5,0.9c-0.1,0.1-0.1,0.1-0.3,0c-0.3-0.1-0.8-0.4-1.3,0.1c-0.9,0.7-1.8,2.1-2.4,3.2
			c-0.8,1.4-0.5,1.9,0,2.5l0,0l0.4,0.7c0.1,0.2,0.1,0.4,0.1,0.7c0,0.1,0.1,0.3,0.1,0.4c0.3,0.7,1.4,1,2.1,1.2c1,0.2,3.2,0.4,3.7-0.5
			c0.2-0.3,0.2-0.3,1.1-0.1c0.3,0.1,0.7,0.2,1.1,0.3c1.2,0.2,2,0.1,2.3-0.3c0.4-0.5,0.2-1.2,0.1-1.6c0-0.1-0.1-0.3-0.1-0.4
			c0.3-0.1,1.6,0.1,2.4,0.2c1.6,0.3,3,0.5,3.5-0.1c0.6-0.7,0.3-1.3,0.1-1.7l-0.1-0.3c0,0,0-0.1,0.1-0.1c0.4-0.3,1.4-0.1,2.4,0.1
			c0.9,0,1.7,0.2,2.5,0.2l0,0c0.6,0,1.2-0.4,1.5-1c0.3-0.7,0.1-1.5-0.5-2.1c-0.3-0.3-0.3-0.5-0.3-0.5c0-0.2,0.6-0.6,1.3-1
			c0.2-0.2,0.5-0.3,0.8-0.5c2.8-1.7,3.7-3.9,2.5-6.2c-1.1-2.2-2.7-1.9-3.7-1.7C439.7,299.9,439.6,299.9,439.5,300z"/>
		<path class="st1" d="M407.6,314.6L407.6,314.6l0.8,0.2c0.2,0.1,0.3,0.2,0.5,0.4c0.1,0.1,0.2,0.2,0.3,0.2c0.7,0.2,1.7-0.3,2.2-0.6
			c0.9-0.5,2.5-1.9,2.2-2.8c-0.1-0.3-0.1-0.4,0.7-0.8c0.3-0.1,0.6-0.3,1-0.6c1-0.7,1.4-1.3,1.4-1.8c0-0.6-0.6-0.9-1-1.2
			c-0.1-0.1-0.3-0.1-0.3-0.2c0.1-0.3,1.1-1,1.8-1.5c1.3-0.9,2.4-1.7,2.3-2.5c-0.1-0.9-0.7-1.1-1.1-1.2l-0.3-0.1c0,0,0,0,0-0.1
			c0.1-0.5,0.9-1,1.7-1.6c0.6-0.6,1.3-1,1.8-1.6l0,0c0.4-0.4,0.5-1.1,0.3-1.7c-0.3-0.7-0.9-1.1-1.7-1.1c-0.4,0-0.5-0.1-0.6-0.1
			c-0.1-0.2,0-0.8,0.2-1.5c0.1-0.3,0.1-0.5,0.2-0.8c0.7-3.1-0.2-5.2-2.5-5.9c-2.2-0.7-3.1,0.6-3.7,1.3c-0.1,0.1-0.1,0.2-0.2,0.3
			c-0.2,0.3-0.4,0.3-0.8,0.3c-0.3,0-0.6,0.1-1,0.3c-0.9,0.5-0.8,1.6-0.8,2.5c0,0.3,0,0.7,0,0.8c-0.1,0.2-0.3,0.2-0.8,0
			c-0.5-0.2-1.1-0.3-1.7,0c-1.1,0.7-0.5,2.6,0,4.1c0.1,0.4,0.3,0.8,0.3,1l0,0l-0.2-0.1c-0.4-0.1-1-0.3-1.6,0.3
			c-0.7,0.8-0.1,2.3,0.3,3.6c0.2,0.5,0.4,1.2,0.4,1.3l0,0c0,0-0.2,0-0.3,0c-0.3-0.1-0.8-0.2-1.3,0.2c-0.7,0.5-0.2,1.9,0.2,3.2
			c0.1,0.4,0.3,0.8,0.3,0.9c0,0.1,0,0.1-0.2,0.2c-0.3,0.1-0.8,0.3-0.9,1c-0.1,1,0.2,2.6,0.5,3.8
			C406.3,314.3,406.9,314.5,407.6,314.6z"/>
	</g>
	<g>
		<path class="st1" d="M417.9,335.2c-0.4-0.1-0.5-0.3-0.7-0.6c-0.1-0.3-0.3-0.6-0.7-0.8c-0.9-0.6-1.9-0.1-2.7,0.3
			c-0.3,0.1-0.7,0.3-0.8,0.3c-0.2-0.1-0.3-0.2-0.4-0.8c-0.1-0.5-0.2-1.2-0.8-1.6c-1.1-0.8-2.7,0.7-3.9,1.8c-0.3,0.3-0.7,0.6-0.8,0.7
			l0,0l0-0.2c-0.1-0.4-0.2-1.1-1-1.3c-1.1-0.3-2.2,0.9-3.2,1.9c-0.4,0.4-0.9,0.9-1.1,0.9l0,0c0,0-0.1-0.2-0.1-0.3
			c-0.1-0.3-0.2-0.8-0.7-1.1c-0.8-0.4-1.9,0.6-2.9,1.5c-0.3,0.3-0.6,0.6-0.8,0.7c-0.1,0.1-0.1,0.1-0.3-0.1c-0.2-0.2-0.6-0.6-1.3-0.4
			c-1,0.3-2.4,1.3-3.4,2.1c-1.2,1.1-1.1,1.7-0.9,2.4l0,0l0.1,0.8c0,0.2,0,0.4-0.1,0.7c-0.1,0.1-0.1,0.3,0,0.4c0.1,0.7,1,1.5,1.6,1.8
			c0.9,0.6,2.9,1.5,3.6,0.8c0.3-0.2,0.3-0.2,1.1,0.3c0.3,0.2,0.6,0.4,0.9,0.7c1.1,0.6,1.8,0.8,2.3,0.5c0.6-0.3,0.6-1,0.7-1.5
			c0-0.1,0-0.3,0-0.4c0.3,0,1.5,0.6,2.1,1c1.4,0.8,2.6,1.5,3.3,1.1c0.8-0.4,0.7-1.1,0.6-1.5l0-0.3c0,0,0,0,0.1-0.1
			c0.5-0.1,1.4,0.4,2.2,0.9c0.8,0.3,1.5,0.8,2.3,1l0,0c0.6,0.2,1.3,0,1.8-0.5c0.5-0.6,0.6-1.3,0.3-2.1c-0.2-0.4-0.1-0.5-0.1-0.6
			c0.1-0.2,0.8-0.3,1.5-0.5c0.3-0.1,0.5-0.1,0.9-0.2c3.2-0.7,4.8-2.4,4.5-4.9c-0.3-2.4-1.9-2.7-2.9-2.9
			C418.2,335.2,418.1,335.2,417.9,335.2z"/>
		<path class="st1" d="M382.9,337.8L382.9,337.8l0.6,0.5c0.1,0.2,0.2,0.3,0.4,0.5c0,0.1,0.2,0.2,0.2,0.3c0.6,0.5,1.7,0.3,2.3,0.2
			c1-0.2,3-0.9,3-1.9c0-0.3,0.1-0.4,0.9-0.5c0.3,0,0.7-0.1,1.1-0.2c1.1-0.3,1.7-0.7,1.9-1.2c0.2-0.6-0.3-1.1-0.6-1.5
			c-0.1-0.1-0.2-0.2-0.2-0.3c0.2-0.2,1.4-0.6,2.2-0.8c1.5-0.4,2.8-0.8,3-1.5c0.2-0.8-0.3-1.3-0.6-1.5l-0.2-0.2c0,0,0-0.1,0-0.1
			c0.2-0.4,1.2-0.7,2.1-0.9c0.8-0.3,1.5-0.5,2.3-0.8l0,0c0.5-0.2,0.9-0.8,0.9-1.5c0-0.7-0.5-1.3-1.2-1.6c-0.4-0.1-0.5-0.3-0.5-0.3
			c0-0.2,0.3-0.8,0.7-1.4c0.1-0.2,0.3-0.4,0.5-0.7c1.7-2.6,1.6-4.9-0.3-6.4c-1.9-1.5-3.1-0.6-3.9,0c-0.1,0.1-0.2,0.1-0.3,0.2
			c-0.3,0.2-0.5,0.1-0.8,0.1c-0.3-0.1-0.6-0.2-1-0.1c-1,0.2-1.3,1.2-1.6,2c-0.1,0.3-0.2,0.7-0.3,0.8c-0.2,0.1-0.3,0.1-0.8-0.3
			c-0.4-0.3-0.9-0.7-1.6-0.6c-1.3,0.2-1.3,2.3-1.4,3.9c0,0.4,0,0.9-0.1,1l0,0l-0.1-0.1c-0.3-0.2-0.9-0.6-1.6-0.2
			c-0.9,0.5-0.9,2.1-0.9,3.5c0,0.5,0,1.2-0.1,1.4l0,0c-0.1,0-0.2-0.1-0.3-0.1c-0.3-0.2-0.7-0.4-1.3-0.3c-0.8,0.2-0.9,1.7-1,3
			c0,0.4,0,0.8-0.1,1c0,0.1,0,0.1-0.3,0.1c-0.3,0-0.8,0-1.1,0.6c-0.5,0.9-0.8,2.5-0.9,3.7C381.8,337.2,382.3,337.5,382.9,337.8z"/>
	</g>
	<g>
		<path class="st1" d="M392.1,362.2c-0.4-0.1-0.5-0.3-0.7-0.6c-0.1-0.3-0.3-0.6-0.7-0.8c-0.9-0.6-1.9-0.1-2.7,0.3
			c-0.3,0.1-0.7,0.3-0.8,0.3c-0.2-0.1-0.3-0.2-0.4-0.8c-0.1-0.5-0.2-1.2-0.8-1.6c-1.1-0.8-2.7,0.7-3.9,1.8c-0.3,0.3-0.7,0.6-0.8,0.7
			l0,0l0-0.2c-0.1-0.4-0.2-1.1-1-1.3c-1.1-0.3-2.2,0.9-3.2,1.9c-0.4,0.4-0.9,0.9-1.1,0.9l0,0c0,0-0.1-0.2-0.1-0.3
			c-0.1-0.3-0.2-0.8-0.7-1.1c-0.8-0.4-1.9,0.6-2.9,1.5c-0.3,0.3-0.6,0.6-0.8,0.7c-0.1,0.1-0.1,0.1-0.3-0.1c-0.2-0.2-0.6-0.6-1.3-0.4
			c-1,0.3-2.4,1.3-3.4,2.1c-1.2,1.1-1.1,1.7-0.9,2.4l0,0l0.1,0.8c0,0.2,0,0.4-0.1,0.7c-0.1,0.1-0.1,0.3,0,0.4c0.1,0.7,1,1.5,1.6,1.8
			c0.9,0.6,2.9,1.5,3.6,0.8c0.3-0.2,0.3-0.2,1.1,0.3c0.3,0.2,0.6,0.4,0.9,0.7c1.1,0.6,1.8,0.8,2.3,0.5c0.6-0.3,0.6-1,0.7-1.5
			c0-0.1,0-0.3,0-0.4c0.3,0,1.5,0.6,2.1,1c1.4,0.8,2.6,1.5,3.3,1.1c0.8-0.4,0.7-1.1,0.6-1.5l0-0.3c0,0,0,0,0.1-0.1
			c0.5-0.1,1.4,0.4,2.2,0.9c0.8,0.3,1.5,0.8,2.3,1l0,0c0.6,0.2,1.3,0,1.8-0.5c0.5-0.6,0.6-1.3,0.3-2.1c-0.2-0.4-0.1-0.5-0.1-0.6
			c0.1-0.2,0.8-0.3,1.5-0.5c0.3-0.1,0.5-0.1,0.9-0.2c3.2-0.7,4.8-2.4,4.5-4.9c-0.3-2.4-1.9-2.7-2.9-2.9
			C392.3,362.2,392.2,362.2,392.1,362.2z"/>
		<path class="st1" d="M357.1,364.8L357.1,364.8l0.6,0.5c0.1,0.2,0.2,0.3,0.4,0.5c0,0.1,0.2,0.2,0.2,0.3c0.6,0.5,1.7,0.3,2.3,0.2
			c1-0.2,3-0.9,3-1.9c0-0.3,0.1-0.4,0.9-0.5c0.3,0,0.7-0.1,1.1-0.2c1.1-0.3,1.7-0.7,1.9-1.2c0.2-0.6-0.3-1.1-0.6-1.5
			c-0.1-0.1-0.2-0.2-0.2-0.3c0.2-0.2,1.4-0.6,2.2-0.8c1.5-0.4,2.8-0.8,3-1.5c0.2-0.8-0.3-1.3-0.6-1.5l-0.2-0.2c0,0,0-0.1,0-0.1
			c0.2-0.4,1.2-0.7,2.1-0.9c0.8-0.3,1.5-0.5,2.3-0.8l0,0c0.5-0.2,0.9-0.8,0.9-1.5c0-0.7-0.5-1.3-1.2-1.6c-0.4-0.1-0.5-0.3-0.5-0.3
			c0-0.2,0.3-0.8,0.7-1.4c0.1-0.2,0.3-0.4,0.5-0.7c1.7-2.6,1.6-4.9-0.3-6.4c-1.9-1.5-3.1-0.6-3.9,0c-0.1,0.1-0.2,0.1-0.3,0.2
			c-0.3,0.2-0.5,0.1-0.8,0.1c-0.3-0.1-0.6-0.2-1-0.1c-1,0.2-1.3,1.2-1.6,2c-0.1,0.3-0.2,0.7-0.3,0.8c-0.2,0.1-0.3,0.1-0.8-0.3
			c-0.4-0.3-0.9-0.7-1.6-0.6c-1.3,0.2-1.3,2.3-1.4,3.9c0,0.4,0,0.9-0.1,1l0,0l-0.1-0.1c-0.3-0.2-0.9-0.6-1.6-0.2
			c-0.9,0.5-0.9,2.1-0.9,3.5c0,0.5,0,1.2-0.1,1.4l0,0c-0.1,0-0.2-0.1-0.3-0.1c-0.3-0.2-0.7-0.4-1.3-0.3c-0.8,0.2-0.9,1.7-1,3
			c0,0.4,0,0.8-0.1,1c0,0.1,0,0.1-0.3,0.1c-0.3,0-0.8,0-1.1,0.6c-0.5,0.9-0.8,2.5-0.9,3.7C356,364.2,356.4,364.5,357.1,364.8z"/>
	</g>
	<g>
		<path class="st1" d="M357.6,385.8c-0.3-0.2-0.3-0.4-0.4-0.8c0-0.3-0.1-0.7-0.3-1c-0.5-0.9-1.7-0.8-2.6-0.8c-0.3,0-0.8,0-0.9,0
			c-0.2-0.1-0.2-0.3,0-0.9c0.2-0.5,0.3-1.1-0.1-1.8c-0.7-1.1-2.7-0.4-4.3,0.1c-0.4,0.1-0.9,0.3-1,0.3l0,0l0.1-0.2
			c0.1-0.4,0.3-1.1-0.4-1.6c-0.9-0.7-2.4-0.1-3.7,0.4c-0.5,0.2-1.2,0.5-1.4,0.4l0,0c0-0.1,0-0.2,0-0.3c0.1-0.3,0.1-0.8-0.2-1.3
			c-0.6-0.7-2-0.2-3.3,0.2c-0.4,0.1-0.8,0.3-1,0.3c-0.1,0-0.1,0-0.2-0.2c-0.1-0.3-0.3-0.8-1-0.9c-1.1-0.1-2.7,0.2-3.9,0.6
			c-1.5,0.5-1.7,1.1-1.8,1.8l0,0L331,381c-0.1,0.2-0.2,0.4-0.4,0.5c-0.1,0.1-0.2,0.2-0.2,0.4c-0.2,0.7,0.3,1.7,0.7,2.3
			c0.6,0.9,2,2.5,3,2.2c0.3-0.1,0.4-0.1,0.9,0.7c0.2,0.3,0.3,0.6,0.6,1c0.7,1,1.3,1.4,1.9,1.4c0.6,0,1-0.7,1.2-1.1
			c0.1-0.1,0.1-0.3,0.2-0.4c0.3,0.1,1.1,1.1,1.5,1.8c1,1.3,1.8,2.4,2.6,2.3c0.9-0.1,1.1-0.7,1.2-1.2l0.1-0.3c0,0,0.1,0,0.1,0
			c0.5,0.1,1.1,0.9,1.7,1.7c0.6,0.6,1.1,1.3,1.7,1.9l0,0c0.4,0.4,1.2,0.5,1.8,0.3c0.7-0.3,1.1-1,1.1-1.8c0-0.5,0.1-0.6,0.1-0.6
			c0.2-0.1,0.9,0,1.6,0.2c0.3,0,0.5,0.1,0.9,0.2c3.2,0.7,5.4-0.3,6.1-2.7c0.7-2.4-0.7-3.3-1.5-3.8
			C357.8,385.9,357.7,385.8,357.6,385.8z"/>
		<path class="st1" d="M324.4,374.2L324.4,374.2l0.4,0.7c0.1,0.2,0.1,0.4,0.1,0.6c0,0.1,0.1,0.3,0.1,0.4c0.3,0.6,1.4,1,2.1,1.1
			c1,0.2,3.1,0.3,3.5-0.6c0.2-0.3,0.2-0.3,1.1-0.1c0.3,0.1,0.7,0.2,1.1,0.3c1.2,0.2,1.9,0.1,2.2-0.3c0.4-0.5,0.2-1.1,0.1-1.6
			c0-0.1-0.1-0.3-0.1-0.4c0.3-0.1,1.5,0,2.3,0.2c1.5,0.2,2.9,0.4,3.4-0.2c0.6-0.7,0.3-1.2,0-1.6l-0.1-0.3c0,0,0-0.1,0.1-0.1
			c0.4-0.3,1.3-0.1,2.3,0c0.8,0,1.6,0.2,2.4,0.1l0,0c0.6,0,1.2-0.4,1.4-1c0.2-0.7,0.1-1.4-0.5-2c-0.3-0.3-0.3-0.4-0.3-0.5
			c0-0.2,0.6-0.6,1.2-1c0.2-0.2,0.5-0.3,0.7-0.5c2.6-1.7,3.4-3.9,2.3-6c-1.1-2.1-2.7-1.8-3.6-1.6c-0.1,0-0.2,0-0.3,0.1
			c-0.4,0.1-0.5-0.1-0.8-0.3c-0.2-0.2-0.5-0.4-0.9-0.5c-1-0.2-1.7,0.6-2.3,1.2c-0.2,0.2-0.5,0.6-0.6,0.6c-0.2,0-0.3-0.1-0.6-0.6
			c-0.2-0.4-0.6-1-1.2-1.2c-1.3-0.3-2.2,1.6-2.8,3c-0.2,0.3-0.4,0.8-0.5,0.9l0,0l-0.1-0.2c-0.2-0.4-0.6-0.9-1.4-0.8
			c-1.1,0.1-1.7,1.6-2.2,2.8c-0.2,0.5-0.5,1.1-0.6,1.2l0,0c-0.1,0-0.1-0.2-0.2-0.2c-0.2-0.3-0.5-0.7-1.1-0.7
			c-0.9-0.1-1.5,1.2-2.1,2.4c-0.2,0.3-0.4,0.7-0.5,0.9c-0.1,0.1-0.1,0.1-0.3,0c-0.3-0.1-0.7-0.4-1.3,0.1c-0.8,0.7-1.7,2-2.3,3.1
			C323.7,373.2,324,373.7,324.4,374.2z"/>
	</g>
	<g>
		<path class="st1" d="M323.1,400.2c-0.3-0.2-0.3-0.4-0.4-0.8c0-0.3-0.1-0.7-0.3-1c-0.5-0.9-1.7-0.8-2.6-0.8c-0.3,0-0.8,0-0.9,0
			c-0.2-0.1-0.2-0.3,0-0.9c0.2-0.5,0.3-1.1-0.1-1.8c-0.7-1.1-2.7-0.4-4.3,0.1c-0.4,0.1-0.9,0.3-1,0.3l0,0l0.1-0.2
			c0.1-0.4,0.3-1.1-0.4-1.6c-0.9-0.7-2.4-0.1-3.7,0.4c-0.5,0.2-1.2,0.5-1.4,0.4l0,0c0-0.1,0-0.2,0-0.3c0.1-0.3,0.1-0.8-0.2-1.3
			c-0.6-0.7-2-0.2-3.3,0.2c-0.4,0.1-0.8,0.3-1,0.3c-0.1,0-0.1,0-0.2-0.2c-0.1-0.3-0.3-0.8-1-0.9c-1.1-0.1-2.7,0.2-3.9,0.6
			c-1.5,0.5-1.7,1.1-1.8,1.8l0,0l-0.2,0.8c-0.1,0.2-0.2,0.4-0.4,0.5c-0.1,0.1-0.2,0.2-0.2,0.4c-0.2,0.7,0.3,1.7,0.7,2.3
			c0.6,0.9,2,2.5,3,2.2c0.3-0.1,0.4-0.1,0.9,0.7c0.2,0.3,0.3,0.6,0.6,1c0.7,1,1.3,1.4,1.9,1.4c0.6,0,1-0.7,1.2-1.1
			c0.1-0.1,0.1-0.3,0.2-0.4c0.3,0.1,1.1,1.1,1.5,1.8c1,1.3,1.8,2.4,2.6,2.3c0.9-0.1,1.1-0.7,1.2-1.2l0.1-0.3c0,0,0.1,0,0.1,0
			c0.5,0.1,1.1,0.9,1.7,1.7c0.6,0.6,1.1,1.3,1.7,1.9l0,0c0.4,0.4,1.2,0.5,1.8,0.3c0.7-0.3,1.1-1,1.1-1.8c0-0.5,0.1-0.6,0.1-0.6
			c0.2-0.1,0.9,0,1.6,0.2c0.3,0,0.5,0.1,0.9,0.2c3.2,0.7,5.4-0.3,6.1-2.7c0.7-2.4-0.7-3.3-1.5-3.8
			C323.3,400.3,323.2,400.3,323.1,400.2z"/>
		<path class="st1" d="M290,388.7L290,388.7l0.4,0.7c0.1,0.2,0.1,0.4,0.1,0.6c0,0.1,0.1,0.3,0.1,0.4c0.3,0.6,1.4,1,2.1,1.1
			c1,0.2,3.1,0.3,3.5-0.6c0.2-0.3,0.2-0.3,1.1-0.1c0.3,0.1,0.7,0.2,1.1,0.3c1.2,0.2,1.9,0.1,2.2-0.3c0.4-0.5,0.2-1.1,0.1-1.6
			c0-0.1-0.1-0.3-0.1-0.4c0.3-0.1,1.5,0,2.3,0.2c1.5,0.2,2.9,0.4,3.4-0.2c0.6-0.7,0.3-1.2,0-1.6l-0.1-0.3c0,0,0-0.1,0.1-0.1
			c0.4-0.3,1.3-0.1,2.3,0c0.8,0,1.6,0.2,2.4,0.1l0,0c0.6,0,1.2-0.4,1.4-1c0.2-0.7,0.1-1.4-0.5-2c-0.3-0.3-0.3-0.4-0.3-0.5
			c0-0.2,0.6-0.6,1.2-1c0.2-0.2,0.5-0.3,0.7-0.5c2.6-1.7,3.4-3.9,2.3-6c-1.1-2.1-2.7-1.8-3.6-1.6c-0.1,0-0.2,0-0.3,0.1
			c-0.4,0.1-0.5-0.1-0.8-0.3c-0.2-0.2-0.5-0.4-0.9-0.5c-1-0.2-1.7,0.6-2.3,1.2c-0.2,0.2-0.5,0.6-0.6,0.6c-0.2,0-0.3-0.1-0.6-0.6
			c-0.2-0.4-0.6-1-1.2-1.2c-1.3-0.3-2.2,1.6-2.8,3c-0.2,0.3-0.4,0.8-0.5,0.9l0,0l-0.1-0.2c-0.2-0.4-0.6-0.9-1.4-0.8
			c-1.1,0.1-1.7,1.6-2.2,2.8c-0.2,0.5-0.5,1.1-0.6,1.2l0,0c-0.1,0-0.1-0.2-0.2-0.2c-0.2-0.3-0.5-0.7-1.1-0.7
			c-0.9-0.1-1.5,1.2-2.1,2.4c-0.2,0.3-0.4,0.7-0.5,0.9c-0.1,0.1-0.1,0.1-0.3,0c-0.3-0.1-0.7-0.4-1.3,0.1c-0.8,0.7-1.7,2-2.3,3.1
			C289.2,387.6,289.5,388.1,290,388.7z"/>
	</g>
</g>
<g>
	<g>
		<path class="st1" d="M81.4,176c0.2-0.2,0.4-0.2,0.5-0.1c0.2,0.1,0.5,0.4,1.1,1c0.5,0.6,1,1.4,1.5,2.5c1,2.1,0.9,4.5-0.2,7.2
			l-0.6,1.5c-0.6,1.4-1.3,2.5-2.2,3.4c-0.9,0.9-1.9,1.6-3.1,2c-1.2,0.4-2.4,0.6-3.8,0.5c-1.4-0.1-2.7-0.4-4.2-1L53,185.7
			c-1.4-0.6-2.6-1.3-3.6-2.3c-1-0.9-1.8-1.9-2.3-3.1c-0.5-1.1-0.8-2.3-0.8-3.6c0-1.3,0.3-2.6,0.9-3.9l0.6-1.5c0.5-1.2,1.2-2.3,2-3.1
			c0.8-0.8,1.6-1.5,2.5-2c0.9-0.5,1.7-0.8,2.5-0.9c0.8-0.1,1.5-0.1,2.1,0.2c0.2,0.1,0.3,0.2,0.3,0.5l0.5,3.9c0,0.1,0,0.2,0,0.3
			c-0.1,0.1-0.2,0.2-0.5,0.3c-1.1,0.2-2.1,0.5-2.9,0.8c-0.8,0.3-1.5,1-1.9,2l-0.6,1.5c-0.5,1.3-0.5,2.5,0.1,3.8
			c0.6,1.3,1.6,2.2,3.1,2.8l17.4,7.2c1.4,0.6,2.8,0.7,4.1,0.2c1.3-0.5,2.3-1.3,2.8-2.6l0.6-1.5c0.2-0.6,0.4-1.2,0.3-1.8
			c0-0.6-0.2-1-0.4-1.4c-0.5-0.9-0.9-1.5-1.2-2c-0.3-0.4-0.4-0.7-0.4-0.9c0-0.1,0.1-0.1,0.2-0.3L81.4,176z"/>
		<path class="st1" d="M94.7,146.3c1.3,0.8,2.4,1.8,3.2,2.8c0.8,1.1,1.4,2.2,1.7,3.4c0.3,1.2,0.4,2.4,0.2,3.7
			c-0.2,1.3-0.7,2.5-1.5,3.7l-0.9,1.4c-0.8,1.2-1.7,2.2-2.7,3c-1,0.7-2.2,1.2-3.4,1.4c-1.2,0.2-2.5,0.2-3.8-0.1
			c-1.3-0.3-2.6-0.8-3.9-1.7l-15.9-10c-1.3-0.8-2.4-1.8-3.2-2.8c-0.8-1.1-1.4-2.2-1.7-3.4c-0.3-1.2-0.4-2.4-0.2-3.7
			c0.2-1.3,0.7-2.5,1.5-3.7l0.9-1.4c0.8-1.2,1.7-2.2,2.7-3c1-0.7,2.2-1.2,3.4-1.4c1.2-0.2,2.5-0.2,3.8,0.1c1.3,0.3,2.6,0.8,3.9,1.7
			L94.7,146.3z M76.2,140.4c-1.3-0.8-2.6-1.1-4-0.9c-1.4,0.2-2.4,0.9-3.2,2.1l-0.9,1.4c-0.7,1.1-0.9,2.4-0.5,3.7
			c0.4,1.3,1.2,2.4,2.5,3.2l15.9,10c1.3,0.8,2.6,1.1,4,0.9c1.4-0.2,2.4-0.9,3.2-2.1l0.9-1.4c0.7-1.1,0.9-2.4,0.5-3.7
			c-0.4-1.3-1.2-2.4-2.5-3.2L76.2,140.4z"/>
		<path class="st1" d="M124,125.4c0.1,0,0.2,0.1,0.3,0.2c0.2,0.2,0.2,0.5,0,0.7l-2.8,3.1l-0.6,0.1l-15.4-7.2l-0.6,0.1l-3.6,3.9
			c-0.2,0.3-0.2,0.5,0.1,0.8l11.7,10.6c0.3,0.3,0.3,0.5,0.1,0.8l-2.5,2.8c-0.2,0.3-0.5,0.3-0.8,0l-27.5-24.8
			c-0.3-0.3-0.3-0.5-0.1-0.8l7.2-8c2-2.2,4.3-3.3,6.9-3.3c2.6,0,5.2,1.2,7.7,3.4l0.5,0.4c0.8,0.7,1.5,1.7,2,2.9c0.6,1.2,0.9,2.5,1,4
			c0.1,0.7,0,1.3-0.1,1.7c-0.1,0.4-0.1,0.7,0.2,0.9c0.1,0.1,0.1,0.1,0.2,0.1L124,125.4z M100.5,111c-1.1-1-2.4-1.6-3.8-1.6
			c-1.4,0-2.6,0.5-3.5,1.5l-3.9,4.4c-0.2,0.3-0.2,0.5,0.1,0.8L97,123c0.3,0.3,0.6,0.3,0.8,0l4-4.4c0.9-1,1.3-2.2,1.1-3.6
			c-0.2-1.4-0.8-2.6-2-3.6L100.5,111z"/>
		<path class="st1" d="M118.3,81.3c2.3-1.8,4.8-2.5,7.4-2.1c2.6,0.5,4.9,2,7,4.7c1,1.2,1.6,2.4,2,3.7c0.4,1.3,0.6,2.5,0.5,3.8
			c-0.1,1.2-0.5,2.4-1.1,3.6c-0.6,1.1-1.5,2.2-2.6,3l-4.6,3.7c-0.3,0.2-0.3,0.5,0,0.8l9.8,12.4c0.3,0.3,0.2,0.6,0,0.8l-2.9,2.3
			c-0.3,0.2-0.5,0.2-0.8-0.1l-22.9-29.1c-0.3-0.3-0.2-0.6,0-0.8L118.3,81.3z M128.4,86.4c-1-1.2-2.1-1.9-3.5-2.2
			c-1.4-0.3-2.6,0-3.7,0.9l-4.6,3.7c-0.3,0.2-0.3,0.5,0,0.8l6.4,8.1c0.3,0.3,0.5,0.4,0.8,0.1l4.6-3.7c1.1-0.8,1.6-2,1.7-3.4
			c0.1-1.4-0.4-2.7-1.3-3.9L128.4,86.4z"/>
		<path class="st1" d="M171.2,81.6c0.7,1.4,1.2,2.7,1.4,4c0.2,1.3,0.2,2.6-0.1,3.8c-0.3,1.2-0.9,2.3-1.7,3.3c-0.8,1-1.8,1.8-3.1,2.5
			l-1.4,0.8c-1.3,0.7-2.6,1.1-3.8,1.3c-1.3,0.1-2.5,0-3.7-0.4c-1.2-0.4-2.3-1-3.3-1.9c-1-0.9-1.9-2-2.6-3.4l-9-16.5
			c-0.7-1.3-1.2-2.7-1.4-4c-0.2-1.3-0.2-2.6,0.2-3.8c0.3-1.2,0.9-2.3,1.7-3.3c0.8-1,1.8-1.8,3.1-2.5l1.4-0.8
			c1.3-0.7,2.6-1.1,3.8-1.3c1.3-0.1,2.5,0,3.7,0.4c1.2,0.4,2.3,1,3.3,1.9c1,0.9,1.9,2,2.6,3.4L171.2,81.6z M158,67.4
			c-0.7-1.4-1.8-2.3-3.1-2.7c-1.3-0.5-2.6-0.4-3.8,0.3l-1.4,0.8c-1.2,0.6-1.9,1.7-2.3,3c-0.3,1.4-0.1,2.7,0.6,4.1l9,16.5
			c0.7,1.4,1.8,2.3,3.1,2.7c1.3,0.5,2.6,0.4,3.8-0.3l1.4-0.8c1.2-0.6,1.9-1.7,2.3-3c0.3-1.4,0.1-2.7-0.6-4.1L158,67.4z"/>
		<path class="st1" d="M219.8,64.7c0.8,3.3,0.6,6-0.6,8.3c-1.2,2.3-3.3,3.8-6.2,4.5L202.6,80c-0.3,0.1-0.6-0.1-0.7-0.5l-8.8-36
			c-0.1-0.4,0-0.6,0.4-0.7l10.4-2.5c2.9-0.7,5.4-0.3,7.5,1.2c2.1,1.5,3.6,3.9,4.4,7.1l0.1,0.6c0.4,1.5,0.2,3.2-0.4,5.2
			c-0.3,0.8-0.6,1.4-0.9,1.9c-0.3,0.4-0.5,0.8-0.4,0.9c0,0.2,0.3,0.4,0.8,0.7c0.5,0.3,1.1,0.7,1.7,1.4c1.5,1.5,2.5,3,2.8,4.5
			L219.8,64.7z M211,49.2c-0.4-1.5-1.1-2.6-2.3-3.4c-1.2-0.8-2.4-1-3.7-0.7l-5.7,1.4c-0.3,0.1-0.5,0.3-0.4,0.7l2.4,10
			c0.1,0.4,0.3,0.5,0.7,0.5l5.7-1.4c1.3-0.3,2.3-1.1,3-2.3c0.7-1.2,0.8-2.6,0.4-4.1L211,49.2z M214.9,65.1c-0.4-1.5-1.1-2.6-2.3-3.4
			c-1.2-0.8-2.4-1.1-3.7-0.7l-5.7,1.4c-0.3,0.1-0.5,0.3-0.4,0.7l2.6,10.6c0.1,0.4,0.3,0.5,0.7,0.5l5.7-1.4c1.3-0.3,2.3-1.1,2.9-2.4
			c0.6-1.3,0.8-2.6,0.4-4.1L214.9,65.1z"/>
		<path class="st1" d="M254.4,71.2c0,0.1,0,0.1,0,0.1c0,0,0,0,0,0.1c0,0.4-0.2,0.6-0.5,0.6l-4,0.3c-0.3,0-0.5-0.1-0.6-0.4l-2.6-7.8
			c-0.1-0.2-0.2-0.3-0.6-0.3l-8.7,0.6c-0.3,0-0.5,0.2-0.5,0.4l-1.4,8.1c0,0.3-0.2,0.4-0.5,0.5l-4,0.3c-0.4,0-0.6-0.1-0.6-0.5
			c0,0,0-0.1,0-0.1c0,0,0-0.1,0-0.2l7.2-37.7c0-0.3,0.2-0.4,0.5-0.5l2.9-0.2c0.2,0,0.4,0.1,0.6,0.4L254.4,71.2z M241.4,47.1
			c-0.1-0.3-0.2-0.7-0.4-1.1c-0.1-0.4-0.3-0.9-0.5-1.5l-0.2,0l-0.4,2.8l-1.8,11.5c0,0.1,0,0.1,0,0.2c0,0,0,0.1,0,0.1
			c0,0.4,0.2,0.5,0.6,0.5l5.6-0.4c0.4,0,0.6-0.2,0.5-0.6c0,0,0-0.1,0-0.1c0,0,0-0.1,0-0.1L241.4,47.1z"/>
		<path class="st1" d="M285.5,73.7c0,0.4-0.2,0.6-0.6,0.6l-3.4-0.3l-0.5-0.3L271,45.2l-2.3,26.9c0,0.4-0.2,0.6-0.6,0.6l-3.7-0.4
			c-0.4,0-0.5-0.3-0.5-0.7l3.5-36.9c0-0.4,0.2-0.6,0.6-0.6l3.4,0.3l0.5,0.3l10,28.3l2.3-26.8c0-0.4,0.2-0.6,0.6-0.6l3.7,0.4
			c0.4,0,0.5,0.3,0.5,0.7L285.5,73.7z"/>
		<path class="st1" d="M321.5,72c-0.9,3.3-2.5,5.6-4.7,7c-2.2,1.4-4.7,1.7-7.6,0.9L298.9,77c-0.3-0.1-0.5-0.3-0.4-0.7l10.1-35.6
			c0.1-0.4,0.3-0.5,0.7-0.4l10.3,2.9c2.9,0.8,4.8,2.4,6,4.8c1.1,2.4,1.2,5.2,0.3,8.4L321.5,72z M321.5,54.4c0.4-1.5,0.3-2.9-0.3-4.1
			c-0.6-1.3-1.6-2.1-2.9-2.5l-5.7-1.6c-0.3-0.1-0.6,0-0.7,0.4l-7.5,26.3c-0.1,0.4,0,0.6,0.3,0.7l5.7,1.6c1.3,0.4,2.6,0.2,3.7-0.6
			c1.2-0.8,2-1.9,2.4-3.3L321.5,54.4z"/>
		<path class="st1" d="M334.9,88.8c-0.2,0.4-0.4,0.5-0.7,0.3l-3.4-1.5c-0.3-0.1-0.4-0.4-0.2-0.8l15-33.9c0.2-0.4,0.4-0.5,0.7-0.3
			l3.4,1.5c0.3,0.1,0.4,0.4,0.2,0.8L334.9,88.8z"/>
		<path class="st1" d="M371.2,70.3c-0.6-0.3-1.1-0.5-1.8-0.6c-0.7-0.1-1.3,0-1.9,0.2c-0.6,0.2-1.2,0.5-1.8,0.9s-1,1-1.4,1.6
			c-0.4,0.7-0.6,1.4-0.7,2c0,0.7,0.1,1.4,0.3,2.1c0.2,0.7,0.6,1.5,1.1,2.4s1.1,1.8,1.7,2.8c0.8,1.4,1.5,2.7,2,3.9
			c0.5,1.2,0.8,2.4,0.9,3.6c0.1,1.2,0,2.3-0.3,3.5c-0.3,1.2-0.8,2.4-1.6,3.7c-0.8,1.3-1.7,2.4-2.8,3.2c-1,0.8-2.2,1.4-3.4,1.8
			c-1.2,0.3-2.4,0.4-3.7,0.3c-1.3-0.2-2.5-0.6-3.8-1.4l-1.9-1.2c-1.1-0.7-2-1.4-2.7-2.2c-0.7-0.8-1.2-1.6-1.4-2.3
			c-0.4-1.3-0.6-2.5-0.6-3.4c0-0.9,0.1-1.6,0.3-2c0.1-0.1,0.2-0.2,0.5-0.2l3.9,0.1c0.2,0,0.3,0,0.3,0c0.1,0.1,0.2,0.3,0.2,0.6
			c0,0.6,0,1.1,0.1,1.6c0,0.5,0.1,0.9,0.2,1.4c0.1,0.4,0.3,0.9,0.6,1.2c0.3,0.4,0.7,0.7,1.2,1l1.9,1.2c1.1,0.7,2.4,0.8,3.7,0.4
			c1.4-0.4,2.4-1.3,3.2-2.6c0.4-0.7,0.7-1.4,0.8-2.1c0.1-0.7,0-1.4-0.2-2.2c-0.2-0.8-0.5-1.5-0.9-2.4c-0.4-0.8-1-1.8-1.5-2.8
			c-0.8-1.4-1.5-2.7-2.1-3.9c-0.6-1.2-1-2.4-1.1-3.5c-0.2-1.1-0.2-2.3,0.1-3.4c0.3-1.2,0.8-2.4,1.6-3.7c0.8-1.3,1.7-2.4,2.8-3.2
			c1.1-0.8,2.2-1.4,3.4-1.8c1.2-0.3,2.4-0.4,3.7-0.2c1.3,0.2,2.5,0.7,3.8,1.4l0.7,0.4c1.1,0.7,2.1,1.5,2.8,2.4
			c0.7,0.9,1.2,1.9,1.6,2.8c0.3,0.9,0.5,1.8,0.5,2.7s-0.1,1.5-0.4,2c-0.1,0.2-0.3,0.3-0.5,0.2l-3.9-0.1c-0.1,0-0.2,0-0.3-0.1
			c-0.1-0.1-0.2-0.3-0.2-0.5c0-1.1-0.1-2.1-0.3-3c-0.2-0.9-0.8-1.6-1.7-2.2L371.2,70.3z"/>
		<path class="st1" d="M405.5,95.6c-0.3,0.3-0.5,0.4-0.8,0.1l-4.7-3.9c-0.3-0.2-0.5-0.2-0.8,0.1l-20.5,24.8
			c-0.3,0.3-0.5,0.4-0.8,0.1l-2.9-2.4c-0.3-0.2-0.3-0.5,0-0.8l20.5-24.8c0.3-0.3,0.2-0.6,0-0.8l-4.7-3.9c-0.3-0.2-0.3-0.5,0-0.8
			l2.3-2.8c0.3-0.3,0.5-0.4,0.8-0.1l14,11.6c0.3,0.2,0.3,0.5,0,0.8L405.5,95.6z"/>
		<path class="st1" d="M395.1,132.5c-0.3,0.3-0.6,0.3-0.8,0l-2.6-2.7c-0.2-0.3-0.2-0.5,0.1-0.8l26.9-25.4c0.3-0.3,0.6-0.3,0.8,0
			l2.6,2.7c0.2,0.3,0.2,0.5-0.1,0.8L395.1,132.5z"/>
		<path class="st1" d="M419.8,155c0,0.2,0,0.4-0.2,0.5c-0.2,0.1-0.6,0.3-1.4,0.4c-0.8,0.1-1.7,0.1-2.9,0c-2.3-0.3-4.3-1.6-6-3.9
			l-0.9-1.3c-0.9-1.2-1.4-2.4-1.7-3.6c-0.3-1.2-0.3-2.5-0.1-3.7c0.2-1.2,0.7-2.4,1.5-3.5c0.8-1.1,1.8-2.1,3-3l15.2-11.1
			c1.2-0.9,2.5-1.5,3.8-1.9c1.3-0.4,2.6-0.5,3.8-0.3c1.2,0.1,2.4,0.6,3.5,1.2c1.1,0.7,2.1,1.6,2.9,2.8l0.9,1.3
			c0.8,1.1,1.3,2.2,1.6,3.3c0.3,1.1,0.4,2.2,0.4,3.2c0,1-0.2,1.9-0.5,2.6c-0.3,0.8-0.7,1.3-1.2,1.7c-0.2,0.1-0.4,0.1-0.6,0l-3.6-1.6
			c-0.1,0-0.1-0.1-0.2-0.2c-0.1-0.1-0.1-0.3,0-0.6c0.4-1,0.7-2,0.9-2.9c0.2-0.9-0.1-1.8-0.7-2.7l-0.9-1.3c-0.8-1.1-1.9-1.7-3.3-1.8
			c-1.4-0.1-2.7,0.3-4,1.2l-15.2,11.1c-1.2,0.9-2,2-2.3,3.4c-0.3,1.4-0.1,2.6,0.7,3.7l0.9,1.3c0.4,0.5,0.8,0.9,1.3,1.2
			c0.5,0.3,1,0.4,1.4,0.4c1,0,1.8,0,2.3,0c0.5,0,0.9,0,1,0.2c0,0.1,0.1,0.2,0.1,0.3L419.8,155z"/>
		<path class="st1" d="M438.2,181.8c-1.4,0.7-2.7,1.1-4.1,1.3c-1.3,0.2-2.6,0.1-3.8-0.3c-1.2-0.3-2.3-0.9-3.2-1.8
			c-1-0.8-1.8-1.9-2.4-3.2l-0.7-1.4c-0.7-1.3-1-2.6-1.1-3.9c-0.1-1.3,0.1-2.5,0.5-3.6c0.4-1.2,1.1-2.2,2.1-3.2
			c0.9-1,2.1-1.8,3.5-2.5l16.8-8.4c1.4-0.7,2.7-1.1,4.1-1.3c1.3-0.2,2.6-0.1,3.8,0.3c1.2,0.3,2.3,0.9,3.2,1.8c1,0.8,1.8,1.9,2.4,3.2
			l0.7,1.4c0.7,1.3,1,2.6,1.1,3.9s-0.1,2.5-0.5,3.6c-0.4,1.2-1.1,2.2-2.1,3.2c-0.9,1-2.1,1.8-3.5,2.5L438.2,181.8z M452.9,169.1
			c1.4-0.7,2.3-1.7,2.9-3s0.5-2.6-0.1-3.8l-0.7-1.4c-0.6-1.2-1.6-2-2.9-2.4c-1.4-0.4-2.7-0.2-4.1,0.5l-16.9,8.4
			c-1.4,0.7-2.3,1.7-2.9,3c-0.5,1.3-0.5,2.6,0.1,3.8l0.7,1.4c0.6,1.2,1.6,2,2.9,2.4c1.4,0.4,2.7,0.2,4.1-0.5L452.9,169.1z"/>
	</g>
	<g>
		<path class="st1" d="M174,446.6c-1.5,3-3.5,5-5.9,6c-2.4,1-5,0.7-7.6-0.6l-9.6-4.9c-0.3-0.2-0.4-0.4-0.2-0.8l16.8-33
			c0.2-0.4,0.4-0.5,0.8-0.3l9.6,4.9c2.6,1.3,4.3,3.3,4.9,5.8c0.7,2.5,0.2,5.3-1.3,8.3L174,446.6z M177.4,429.3
			c0.7-1.4,0.9-2.7,0.5-4.1c-0.4-1.4-1.1-2.3-2.3-3l-5.3-2.7c-0.3-0.2-0.6-0.1-0.8,0.3l-12.4,24.3c-0.2,0.4-0.1,0.6,0.2,0.8l5.3,2.7
			c1.2,0.6,2.5,0.7,3.8,0.1c1.3-0.5,2.3-1.5,3-2.8L177.4,429.3z"/>
		<path class="st1" d="M190.4,463.7c-0.1,0.4-0.4,0.5-0.7,0.4l-3.6-1.2c-0.3-0.1-0.4-0.4-0.3-0.7l11.8-35.1c0.1-0.4,0.4-0.5,0.7-0.4
			l3.6,1.2c0.3,0.1,0.4,0.4,0.3,0.7L190.4,463.7z"/>
		<path class="st1" d="M237.3,439.6c-0.6-0.1-1.3,0-1.9,0.2c-0.6,0.2-1.2,0.5-1.7,1c-0.5,0.4-0.9,1-1.2,1.6
			c-0.3,0.6-0.5,1.3-0.6,2.1c-0.1,0.8,0,1.5,0.3,2.1c0.3,0.6,0.7,1.2,1.2,1.8c0.5,0.6,1.2,1.1,2,1.7c0.8,0.6,1.7,1.2,2.7,1.8
			c1.3,0.9,2.5,1.8,3.4,2.7c0.9,0.9,1.7,1.9,2.3,2.9c0.6,1,1,2.1,1.2,3.3c0.2,1.2,0.2,2.5,0.1,4c-0.2,1.5-0.5,2.9-1.1,4.1
			c-0.6,1.2-1.4,2.2-2.3,3c-0.9,0.8-2,1.4-3.2,1.8c-1.2,0.4-2.6,0.5-4,0.3l-2.2-0.2c-1.3-0.1-2.4-0.4-3.4-0.8
			c-1-0.4-1.7-0.9-2.3-1.5c-0.9-1-1.6-2-2-2.8s-0.6-1.5-0.5-2c0-0.2,0.1-0.3,0.4-0.4l3.6-1.6c0.1-0.1,0.2-0.1,0.3-0.1
			c0.1,0,0.3,0.2,0.4,0.5c0.3,0.5,0.5,1,0.7,1.4c0.2,0.4,0.5,0.8,0.8,1.2c0.3,0.4,0.6,0.6,1,0.9c0.4,0.2,0.9,0.4,1.5,0.4l2.2,0.2
			c1.3,0.1,2.5-0.3,3.5-1.2c1.1-0.9,1.7-2.2,1.8-3.7c0.1-0.8,0-1.6-0.2-2.3c-0.2-0.7-0.6-1.3-1.1-1.9c-0.5-0.6-1.1-1.2-1.9-1.8
			c-0.7-0.6-1.6-1.2-2.6-1.9c-1.3-0.9-2.5-1.8-3.5-2.6c-1-0.8-1.9-1.7-2.5-2.7c-0.7-0.9-1.1-2-1.4-3.2c-0.3-1.2-0.3-2.5-0.1-4
			c0.2-1.5,0.5-2.9,1.1-4.1c0.6-1.2,1.4-2.2,2.3-3.1c0.9-0.8,2-1.4,3.2-1.8c1.2-0.4,2.6-0.5,4-0.3l0.9,0.1c1.3,0.1,2.5,0.5,3.5,1
			c1,0.5,1.9,1.2,2.6,1.9c0.7,0.7,1.2,1.4,1.6,2.2c0.4,0.7,0.5,1.4,0.4,2c0,0.2-0.1,0.4-0.4,0.5l-3.6,1.6c-0.1,0-0.2,0-0.3,0
			c-0.1,0-0.3-0.2-0.4-0.4c-0.5-1-1-1.8-1.6-2.6c-0.5-0.7-1.4-1.2-2.5-1.3L237.3,439.6z"/>
		<path class="st1" d="M280,463.9c0.1,1.5,0,3-0.4,4.3c-0.4,1.3-1,2.4-1.7,3.4c-0.8,1-1.7,1.7-2.9,2.3c-1.1,0.6-2.4,0.9-3.9,1
			l-1.6,0.1c-1.5,0.1-2.8-0.1-4-0.5c-1.2-0.4-2.3-1-3.2-1.9c-0.9-0.9-1.6-1.9-2.2-3.1c-0.5-1.2-0.9-2.6-1-4.2l-1.2-18.8
			c-0.1-1.5,0-3,0.4-4.3c0.4-1.3,1-2.4,1.7-3.4c0.8-1,1.7-1.7,2.9-2.3c1.1-0.6,2.4-0.9,3.9-1l1.6-0.1c1.5-0.1,2.8,0.1,4,0.5
			s2.3,1,3.2,1.9c0.9,0.9,1.6,1.9,2.2,3.1c0.5,1.2,0.9,2.6,1,4.2L280,463.9z M274,445.4c-0.1-1.5-0.6-2.8-1.6-3.8
			c-1-1-2.2-1.4-3.5-1.4l-1.6,0.1c-1.4,0.1-2.5,0.7-3.3,1.8c-0.9,1.1-1.2,2.4-1.1,4l1.2,18.8c0.1,1.5,0.6,2.8,1.6,3.8
			c1,1,2.2,1.4,3.5,1.4l1.6-0.1c1.4-0.1,2.5-0.7,3.3-1.8s1.2-2.4,1.1-4L274,445.4z"/>
		<path class="st1" d="M320,464.7c0.1,0.4,0,0.6-0.4,0.7l-3.3,0.8l-0.5-0.2l-19.1-23.3l7,26c0.1,0.4,0,0.6-0.4,0.7l-3.6,0.9
			c-0.3,0.1-0.6-0.1-0.7-0.5l-9.2-35.9c-0.1-0.4,0-0.6,0.4-0.7l3.3-0.8l0.5,0.2l19,23.2l-6.9-26c-0.1-0.4,0-0.6,0.4-0.7l3.6-0.9
			c0.3-0.1,0.6,0.1,0.7,0.5L320,464.7z"/>
		<path class="st1" d="M356.2,449.6c0,0.1,0.1,0.1,0.1,0.1c0,0,0,0,0.1,0.1c0.2,0.3,0,0.6-0.3,0.7l-3.7,1.7
			c-0.3,0.1-0.5,0.1-0.7-0.2l-5.1-6.5c-0.1-0.2-0.3-0.2-0.6-0.1l-7.9,3.6c-0.3,0.1-0.4,0.3-0.3,0.6l1.5,8.1c0.1,0.3,0,0.5-0.3,0.6
			l-3.7,1.7c-0.4,0.2-0.6,0.1-0.8-0.3c0,0,0-0.1,0-0.1c0,0,0-0.1,0-0.1l-6.4-37.8c-0.1-0.3,0-0.5,0.3-0.6l2.6-1.2
			c0.2-0.1,0.4,0,0.7,0.2L356.2,449.6z M335.5,431.4c-0.2-0.3-0.4-0.6-0.7-0.9c-0.3-0.4-0.6-0.8-1-1.2l-0.2,0.1l0.6,2.8l2.3,11.4
			c0,0.1,0,0.1,0,0.1c0,0,0,0.1,0,0.1c0.2,0.3,0.4,0.4,0.8,0.3l5.1-2.3c0.4-0.2,0.5-0.4,0.3-0.7c0,0,0-0.1-0.1-0.1
			c0,0-0.1-0.1-0.1-0.1L335.5,431.4z"/>
	</g>
	<g>
		<g>
			<path class="st1" d="M234.5,389.5c2.7,0,3.3-1.5,3.9-3.2h2.4v25.5h-3.5v-19.4h-2.7V389.5z"/>
			<path class="st1" d="M250.1,412.1c-3.6,0-5.5-2.3-5.5-6.4v-2c0-2.4,0.6-4.3,2.2-5.3c-1.5-0.9-2.2-2.6-2.2-5.1v-0.8
				c0-4.1,2-6.4,5.5-6.4c3.6,0,5.5,2.3,5.5,6.4v0.8c0,2.5-0.7,4.2-2.2,5.1c1.5,1,2.2,2.9,2.2,5.3v2
				C255.6,409.8,253.7,412.1,250.1,412.1z M248.1,394c0,2,0.8,2.7,2,2.7c1.1,0,2-0.7,2-2.7v-1.4c0-2.3-0.9-2.9-2-2.9s-2,0.6-2,2.9
				V394z M250.1,408.5c1.1,0,2-0.6,2-2.9v-2.4c0-2-0.7-2.9-2-2.9c-1.3,0-2,0.9-2,2.9v2.4C248.1,407.8,249,408.5,250.1,408.5z"/>
			<path class="st1" d="M264.6,392.6c0-2.3-0.7-2.9-1.8-2.9c-1.1,0-1.8,0.7-1.8,2.5v1.6h-3.3v-1.4c0-4.1,1.8-6.4,5.3-6.4
				s5.3,2.3,5.3,6.4v0.7c0,2.7-0.8,4.4-2.5,5.2c1.8,0.9,2.5,2.8,2.5,5.4v2c0,4.1-1.8,6.4-5.3,6.4s-5.3-2.3-5.3-6.4v-2.1h3.3v2.4
				c0,1.8,0.7,2.5,1.8,2.5c1.1,0,1.8-0.6,1.8-2.9v-2c0-2.4-0.7-3.2-2.3-3.2h-1.2v-3.6h1.4c1.3,0,2.1-0.7,2.1-2.7V392.6z"/>
			<path class="st1" d="M272.7,389.5c2.7,0,3.3-1.5,3.9-3.2h2.4v25.5h-3.5v-19.4h-2.7V389.5z"/>
		</g>
	</g>
	<path class="st1" d="M256.5,98.8c64.8,0,120.4,39.3,144.3,95.4c0.3-0.4,0.5-0.8,0.8-1.2c-0.3-3.6,0.8-6.5,1.3-7.8l0.1-0.1
		c0.2-0.5,0.3-1,0.6-1.6c-26.7-54.2-82.5-91.7-146.9-91.7c-57,0-107.2,29.3-136.5,73.6c4.2-2.2,8.6-4.3,13-6.4
		C161.6,122.4,206.3,98.8,256.5,98.8z"/>
</g>
<g>
	<g>
		<g>
			<linearGradient id="SVGID_1_" gradientUnits="userSpaceOnUse" x1="224.0498" y1="280.7961" x2="287.2422" y2="286.9313">
				<stop  offset="0" style="stop-color:#FFFFFF"/>
				<stop  offset="0.1212" style="stop-color:#FCEA03"/>
				<stop  offset="0.2061" style="stop-color:#FAAB27"/>
				<stop  offset="0.3091" style="stop-color:#FCECAD"/>
				<stop  offset="0.4061" style="stop-color:#FCCA3A"/>
				<stop  offset="0.4788" style="stop-color:#FCCA3A"/>
				<stop  offset="0.6061" style="stop-color:#D48528"/>
				<stop  offset="0.6205" style="stop-color:#DC922C"/>
				<stop  offset="0.6591" style="stop-color:#EDB134"/>
				<stop  offset="0.692" style="stop-color:#F8C339"/>
				<stop  offset="0.7152" style="stop-color:#FCCA3B"/>
				<stop  offset="0.7258" style="stop-color:#F6C038"/>
				<stop  offset="0.7747" style="stop-color:#DD982C"/>
				<stop  offset="0.8" style="stop-color:#D48828"/>
				<stop  offset="1" style="stop-color:#FCEA03"/>
			</linearGradient>
			<path class="st2" d="M241,245.9l-14.9,13.8v30.1c0,5.8,2,10.8,5.9,15c7,7.5,15.1,13.7,24.4,18.8c9.3-4.5,17.6-10.8,24.8-18.8
				c3.7-4.2,5.6-9,5.6-14.6v-30.4l-14.9-13.8H241z M265.8,296.6h-18.6v-26.1c0-5.3,4.2-9.6,9.3-9.6s9.3,4.3,9.3,9.6V296.6z"/>
			<linearGradient id="SVGID_2_" gradientUnits="userSpaceOnUse" x1="221.2019" y1="236.2318" x2="293.4167" y2="243.2429">
				<stop  offset="0" style="stop-color:#FFFFFF"/>
				<stop  offset="0.1212" style="stop-color:#FCEA03"/>
				<stop  offset="0.2061" style="stop-color:#FAAB27"/>
				<stop  offset="0.3091" style="stop-color:#FCECAD"/>
				<stop  offset="0.4061" style="stop-color:#FCCA3A"/>
				<stop  offset="0.4788" style="stop-color:#FCCA3A"/>
				<stop  offset="0.6061" style="stop-color:#D48528"/>
				<stop  offset="0.6205" style="stop-color:#DC922C"/>
				<stop  offset="0.6591" style="stop-color:#EDB134"/>
				<stop  offset="0.692" style="stop-color:#F8C339"/>
				<stop  offset="0.7152" style="stop-color:#FCCA3B"/>
				<stop  offset="0.7258" style="stop-color:#F6C038"/>
				<stop  offset="0.7747" style="stop-color:#DD982C"/>
				<stop  offset="0.8" style="stop-color:#D48828"/>
				<stop  offset="1" style="stop-color:#FCEA03"/>
			</linearGradient>
			<polygon class="st3" points="220.9,239.7 220.9,257.1 239.9,240.3 254.9,240.3 258.1,240.3 273,240.3 292.1,257.1 292.1,239.7 
				286.6,234.3 286.6,241.1 281.8,236.3 281.8,229.5 272.6,220.3 262.1,220.3 262.1,230.6 258.1,230.6 254.9,230.6 250.8,230.6 
				250.8,220.3 240.3,220.3 231.1,229.5 231.1,236.3 226.3,241.1 226.3,234.3 			"/>
		</g>
	</g>
	<g>
		<path class="st4" d="M206.8,210.1V242l49.7-49.7h-31.9C214.8,192.3,206.8,200.3,206.8,210.1"/>
		<path class="st4" d="M306.1,210.1V242l-49.7-49.7h31.8C298.2,192.3,306.1,200.3,306.1,210.1"/>
		<path class="st1" d="M239.6,202.5l-7.8-8.7l-0.1-0.1c-0.2,0.2-0.1,0.3-0.1,0.3c3,4.1-1.7,8.9-1.7,8.9s-2.7,2.8-2.9,2.9l-14.9,15.4
			l0.1,0.1l-0.7,0.7c-0.1,0-0.2,0-0.2,0L211,222c-0.1-0.1-0.2-0.1-0.3,0l-0.5,0.2c-0.1,0-0.2,0.2-0.1,0.3l1.5,1.7
			c0.1,0.1,0.2,0.1,0.3-0.1l0.2-0.5c0-0.1,0-0.2,0-0.4l0.1-0.2c0-0.1,0-0.2,0-0.3l0.7-0.7l0.1,0.1L228,207c0.2-0.3,3.1-3.1,3.2-3.2
			c1.1-1,5-4,8.2-1.2c0,0,0.1,0.1,0.3-0.1L239.6,202.5z"/>
		<path class="st1" d="M273.4,202.5l7.8-8.7l0.1-0.1c0.2,0.2,0.1,0.3,0.1,0.3c-3,4.1,1.7,8.9,1.7,8.9s2.7,2.8,2.9,2.9l14.9,15.4
			l-0.1,0.1l0.7,0.7c0.1,0,0.2,0,0.2,0l0.1,0.1c0.1-0.1,0.2-0.1,0.3,0l0.5,0.2c0.1,0,0.2,0.2,0.1,0.3l-1.5,1.7
			c-0.1,0.1-0.2,0.1-0.3-0.1l-0.2-0.5c0-0.1,0-0.2,0-0.4l-0.1-0.2c0-0.1,0-0.2,0-0.3l-0.7-0.7l-0.1,0.1L284.9,207
			c-0.2-0.3-3.1-3.1-3.2-3.2c-1.1-1-5-4-8.2-1.2c0,0-0.1,0.1-0.3-0.1L273.4,202.5z"/>
	</g>
	<g>
		<linearGradient id="SVGID_3_" gradientUnits="userSpaceOnUse" x1="147.4509" y1="260.0079" x2="244.7144" y2="269.451">
			<stop  offset="0" style="stop-color:#FFFFFF"/>
			<stop  offset="0.1212" style="stop-color:#FCEA03"/>
			<stop  offset="0.2061" style="stop-color:#FAAB27"/>
			<stop  offset="0.3091" style="stop-color:#FCECAD"/>
			<stop  offset="0.4061" style="stop-color:#FCCA3A"/>
			<stop  offset="0.4788" style="stop-color:#FCCA3A"/>
			<stop  offset="0.6061" style="stop-color:#D48528"/>
			<stop  offset="0.6205" style="stop-color:#DC922C"/>
			<stop  offset="0.6591" style="stop-color:#EDB134"/>
			<stop  offset="0.692" style="stop-color:#F8C339"/>
			<stop  offset="0.7152" style="stop-color:#FCCA3B"/>
			<stop  offset="0.7258" style="stop-color:#F6C038"/>
			<stop  offset="0.7747" style="stop-color:#DD982C"/>
			<stop  offset="0.8" style="stop-color:#D48828"/>
			<stop  offset="1" style="stop-color:#FCEA03"/>
		</linearGradient>
		<path class="st5" d="M214.4,335.5c3.7,1.8,7.6,3.2,11.4,4.4c3.9,1.1,7.8,1.9,11.8,2.7c-3.6-1.8-7.3-3.4-10.7-5.2
			c-3.5-1.9-6.8-3.8-10-6.1c-6.3-4.4-12-9.7-17.1-15.4c-5.1-5.8-9.8-11.9-14.2-18.4c-4.4-6.3-8.3-13-11.8-19.8
			c-3.4-6.9-6.4-14-8.9-21.3c-1.3-3.6-2.3-7.4-3.3-11.1c-1-3.7-1.9-7.5-2.6-11.3c-1.5-7.6-2.4-15.4-3.2-23.3l-0.5-5.9
			c-0.1-1.9,0-3.9,0.1-5.9c0.2-4,0.3-7.9,0.7-11.9c-1.9,7.7-3.3,15.7-3.8,23.7c-0.7,8-0.9,16.1-0.2,24.2c0.3,4.1,0.9,8.1,1.5,12.1
			c0.8,4,1.6,8,2.8,12c2.1,7.9,5.2,15.6,8.8,23c3.7,7.4,8,14.4,12.9,20.9c4.9,6.4,10.2,12.8,16.2,18.4c3,2.8,6.2,5.4,9.6,7.8
			C207.2,331.6,210.8,333.7,214.4,335.5z"/>
		<linearGradient id="SVGID_4_" gradientUnits="userSpaceOnUse" x1="69.0661" y1="298.9802" x2="196.4641" y2="311.3489">
			<stop  offset="0" style="stop-color:#FFFFFF"/>
			<stop  offset="0.1212" style="stop-color:#FCEA03"/>
			<stop  offset="0.2061" style="stop-color:#FAAB27"/>
			<stop  offset="0.3091" style="stop-color:#FCECAD"/>
			<stop  offset="0.4061" style="stop-color:#FCCA3A"/>
			<stop  offset="0.4788" style="stop-color:#FCCA3A"/>
			<stop  offset="0.6061" style="stop-color:#D48528"/>
			<stop  offset="0.6205" style="stop-color:#DC922C"/>
			<stop  offset="0.6591" style="stop-color:#EDB134"/>
			<stop  offset="0.692" style="stop-color:#F8C339"/>
			<stop  offset="0.7152" style="stop-color:#FCCA3B"/>
			<stop  offset="0.7258" style="stop-color:#F6C038"/>
			<stop  offset="0.7747" style="stop-color:#DD982C"/>
			<stop  offset="0.8" style="stop-color:#D48828"/>
			<stop  offset="1" style="stop-color:#FCEA03"/>
		</linearGradient>
		<path class="st6" d="M188.8,347.5c-1.3-0.9-2.5-1.9-3.8-2.9c-2.5-2-4.9-4-7.2-6.1c-4.7-4.2-8.9-8.7-13-13.4
			c-8-9.7-16.2-19.4-24.8-28.8c-2.2-2.4-4.3-4.7-6.5-7.1c-2.3-2.3-4.7-4.7-7.2-6.8c-5-4.3-10.5-8.1-16.2-11.3
			c-11.5-6.4-24.4-10.2-37.3-10.8c12.1,4.5,23.3,10,33.2,17.2c5,3.6,9.7,7.5,14.1,11.7c2.2,2.1,4.4,4.3,6.4,6.5l6.3,7
			c8.5,9.3,17.2,18.7,26.5,27.6c4.8,4.4,10.1,8.4,15.6,11.8c2.8,1.7,5.6,3.3,8.6,4.6c3,1.3,5.9,2.8,9.1,3.3c-0.8-0.1-1.3-0.8-2-1.2
			L188.8,347.5z"/>
		<linearGradient id="SVGID_5_" gradientUnits="userSpaceOnUse" x1="42.1635" y1="208.3774" x2="163.4021" y2="220.1481">
			<stop  offset="0" style="stop-color:#FFFFFF"/>
			<stop  offset="0.1212" style="stop-color:#FCEA03"/>
			<stop  offset="0.2061" style="stop-color:#FAAB27"/>
			<stop  offset="0.3091" style="stop-color:#FCECAD"/>
			<stop  offset="0.4061" style="stop-color:#FCCA3A"/>
			<stop  offset="0.4788" style="stop-color:#FCCA3A"/>
			<stop  offset="0.6061" style="stop-color:#D48528"/>
			<stop  offset="0.6205" style="stop-color:#DC922C"/>
			<stop  offset="0.6591" style="stop-color:#EDB134"/>
			<stop  offset="0.692" style="stop-color:#F8C339"/>
			<stop  offset="0.7152" style="stop-color:#FCCA3B"/>
			<stop  offset="0.7258" style="stop-color:#F6C038"/>
			<stop  offset="0.7747" style="stop-color:#DD982C"/>
			<stop  offset="0.8" style="stop-color:#D48828"/>
			<stop  offset="1" style="stop-color:#FCEA03"/>
		</linearGradient>
		<path class="st7" d="M110.7,225.4c11.1-8,21.7-16.7,31.4-26.5c9.8-9.5,18.7-20.1,26.4-31.3c-10.7,8.5-20.8,17.4-31.4,25.7
			c-5.2,4.2-10.6,8.2-15.9,12.3c-2.7,2-5.4,4-8.1,6l-4,3l-4.1,2.9c-10.8,7.8-22,15.3-33.2,22.5c-11.3,7.2-22.8,14.3-34.7,20.8
			c6.8-1.2,13.2-3.6,19.7-5.9c3.2-1.3,6.3-2.6,9.5-3.9c3.1-1.4,6.2-2.9,9.3-4.4C87.8,240.6,99.6,233.4,110.7,225.4z"/>
		<linearGradient id="SVGID_6_" gradientUnits="userSpaceOnUse" x1="36.2905" y1="203.0333" x2="157.6945" y2="214.8201">
			<stop  offset="0" style="stop-color:#FFFFFF"/>
			<stop  offset="0.1212" style="stop-color:#FCEA03"/>
			<stop  offset="0.2061" style="stop-color:#FAAB27"/>
			<stop  offset="0.3091" style="stop-color:#FCECAD"/>
			<stop  offset="0.4061" style="stop-color:#FCCA3A"/>
			<stop  offset="0.4788" style="stop-color:#FCCA3A"/>
			<stop  offset="0.6061" style="stop-color:#D48528"/>
			<stop  offset="0.6205" style="stop-color:#DC922C"/>
			<stop  offset="0.6591" style="stop-color:#EDB134"/>
			<stop  offset="0.692" style="stop-color:#F8C339"/>
			<stop  offset="0.7152" style="stop-color:#FCCA3B"/>
			<stop  offset="0.7258" style="stop-color:#F6C038"/>
			<stop  offset="0.7747" style="stop-color:#DD982C"/>
			<stop  offset="0.8" style="stop-color:#D48828"/>
			<stop  offset="1" style="stop-color:#FCEA03"/>
		</linearGradient>
		<path class="st8" d="M94.7,205.7l4.1-2.9l4.2-2.8c2.8-1.9,5.5-3.8,8.3-5.6c5.6-3.6,11.2-7.4,16.9-10.9c11.3-7.3,23-13.8,34.6-21.1
			c-13.2,3.6-26.1,8.4-38.3,14.5c-12.4,5.9-24.1,13-35.4,20.8c-11.3,7.8-21.9,16.5-31.7,26.1c-2.5,2.4-4.9,4.8-7.2,7.3
			c-2.3,2.5-4.6,5.1-6.9,7.6c-4.3,5.3-8.7,10.6-12.1,16.6c10.1-9.1,20.6-17.5,31.2-25.8C73,221.4,83.7,213.3,94.7,205.7z"/>
		<linearGradient id="SVGID_7_" gradientUnits="userSpaceOnUse" x1="364.9743" y1="244.3409" x2="424.15" y2="250.0861">
			<stop  offset="0" style="stop-color:#FFFFFF"/>
			<stop  offset="0.1212" style="stop-color:#FCEA03"/>
			<stop  offset="0.2061" style="stop-color:#FAAB27"/>
			<stop  offset="0.3091" style="stop-color:#FCECAD"/>
			<stop  offset="0.4061" style="stop-color:#FCCA3A"/>
			<stop  offset="0.4788" style="stop-color:#FCCA3A"/>
			<stop  offset="0.6061" style="stop-color:#D48528"/>
			<stop  offset="0.6205" style="stop-color:#DC922C"/>
			<stop  offset="0.6591" style="stop-color:#EDB134"/>
			<stop  offset="0.692" style="stop-color:#F8C339"/>
			<stop  offset="0.7152" style="stop-color:#FCCA3B"/>
			<stop  offset="0.7258" style="stop-color:#F6C038"/>
			<stop  offset="0.7747" style="stop-color:#DD982C"/>
			<stop  offset="0.8" style="stop-color:#D48828"/>
			<stop  offset="1" style="stop-color:#FCEA03"/>
		</linearGradient>
		<path class="st9" d="M428.4,194.8l-3.5-2.4l-7.3-5c-0.3-0.2-0.7-0.4-1.1-0.4c-0.2,0-0.5,0-0.7,0.1c-0.6,0.2-1.1,0.8-1.3,1.4
			c-0.1,0.3-0.2,0.7-0.3,1c-0.3,0.9-0.7,1.8-0.5,2.9c0.4,2.4-0.2,4.6-1.9,7.2c-0.5,0.7-0.9,1.4-1.4,2.1c0,0-20.7,32.4-36.6,56.5
			c-2.3,3.5-3.8,7.4-4.3,11.6c-1.5,12.9-5.1,25.1-10.5,36.3l60.4-100c0.2-0.3,0.3-0.5,0.5-0.8c1.6-2.6,3.2-4,5.4-4.7
			c1-0.3,1.7-0.9,2.4-1.5c0.3-0.2,0.5-0.5,0.9-0.7c0.5-0.4,0.9-1.1,0.8-1.8C429.3,195.8,429,195.2,428.4,194.8z"/>
		<linearGradient id="SVGID_8_" gradientUnits="userSpaceOnUse" x1="167.552" y1="240.6719" x2="348.4741" y2="258.2372">
			<stop  offset="0" style="stop-color:#FFFFFF"/>
			<stop  offset="0.1212" style="stop-color:#FCEA03"/>
			<stop  offset="0.2061" style="stop-color:#FAAB27"/>
			<stop  offset="0.3091" style="stop-color:#FCECAD"/>
			<stop  offset="0.4061" style="stop-color:#FCCA3A"/>
			<stop  offset="0.4788" style="stop-color:#FCCA3A"/>
			<stop  offset="0.6061" style="stop-color:#D48528"/>
			<stop  offset="0.6205" style="stop-color:#DC922C"/>
			<stop  offset="0.6591" style="stop-color:#EDB134"/>
			<stop  offset="0.692" style="stop-color:#F8C339"/>
			<stop  offset="0.7152" style="stop-color:#FCCA3B"/>
			<stop  offset="0.7258" style="stop-color:#F6C038"/>
			<stop  offset="0.7747" style="stop-color:#DD982C"/>
			<stop  offset="0.8" style="stop-color:#D48828"/>
			<stop  offset="1" style="stop-color:#FCEA03"/>
		</linearGradient>
		<path class="st10" d="M348.1,246.9c-0.1-1-0.2-2-0.4-3l-0.8-5.9c-0.3-2-0.9-3.9-1.3-5.8c-0.5-1.9-0.8-3.9-1.6-5.8
			c-5-15.1-13.7-29.1-25.6-39.9c-5.8-5.5-12.6-9.9-19.5-13.8c-3.6-1.7-7.1-3.6-11-4.8c-1.9-0.7-3.7-1.4-5.6-2l-5.8-1.4l-2.9-0.7
			l-3-0.4l-5.9-0.8c-2-0.2-4-0.2-6-0.3c-2,0-4-0.2-6,0c-8,0.1-15.8,1.7-23.4,3.9c-7.6,2.2-14.8,5.6-21.5,9.8
			c-6.7,4.2-12.8,9.1-18.1,14.9c-5.2,5.8-9.9,12-13.5,18.9c-3.6,6.8-6.2,14.1-7.9,21.5c2.7-7.1,6.1-13.9,10.2-20.1
			c4.1-6.3,9.1-11.9,14.5-16.9c1.4-1.2,2.7-2.5,4.2-3.6l4.4-3.4c3.1-2,6.1-4.1,9.4-5.8c6.5-3.4,13.2-6.3,20.3-8
			c14.1-3.4,29-3.8,42.9,0l5.2,1.4c1.7,0.6,3.4,1.2,5.1,1.9c3.4,1.1,6.6,2.9,9.8,4.4c6.2,3.6,12.3,7.5,17.4,12.6
			c10.8,9.5,18.7,22.1,23.4,35.6c0.7,1.7,1.1,3.4,1.6,5.2c0.4,1.7,1,3.5,1.4,5.2l0.9,5.3c0.1,0.9,0.3,1.8,0.4,2.7l0.2,2.7l0.4,5.4
			l-0.1,5.4c0,1.8-0.2,3.6-0.4,5.4l-0.2,2.7l-0.5,2.7c-1.1,7.2-3.2,14.2-6.2,20.9c-2.9,6.7-6.7,13.1-11.2,19
			c-8.9,11.8-21.1,21.2-34.8,27.8c14.5-4.6,28-13.2,38.4-24.7c10.3-11.6,18-26,21.1-41.5c1.6-7.7,2.5-15.7,1.8-23.6L348.1,246.9z"/>
		<linearGradient id="SVGID_9_" gradientUnits="userSpaceOnUse" x1="163.109" y1="184.2036" x2="369.787" y2="204.2694">
			<stop  offset="0" style="stop-color:#FFFFFF"/>
			<stop  offset="0.1212" style="stop-color:#FCEA03"/>
			<stop  offset="0.2061" style="stop-color:#FAAB27"/>
			<stop  offset="0.3091" style="stop-color:#FCECAD"/>
			<stop  offset="0.4061" style="stop-color:#FCCA3A"/>
			<stop  offset="0.4788" style="stop-color:#FCCA3A"/>
			<stop  offset="0.6061" style="stop-color:#D48528"/>
			<stop  offset="0.6205" style="stop-color:#DC922C"/>
			<stop  offset="0.6591" style="stop-color:#EDB134"/>
			<stop  offset="0.692" style="stop-color:#F8C339"/>
			<stop  offset="0.7152" style="stop-color:#FCCA3B"/>
			<stop  offset="0.7258" style="stop-color:#F6C038"/>
			<stop  offset="0.7747" style="stop-color:#DD982C"/>
			<stop  offset="0.8" style="stop-color:#D48828"/>
			<stop  offset="1" style="stop-color:#FCEA03"/>
		</linearGradient>
		<path class="st11" d="M361.3,220.6c-3.1-11.7-8.6-22.7-15.6-32.7l-2.6-3.8c-0.9-1.2-1.9-2.3-2.9-3.5l-3-3.5l-1.5-1.7
			c-0.5-0.6-1.1-1.1-1.7-1.6c-2.2-2.1-4.4-4.2-6.7-6.3l-7.3-5.7c-10.1-7.1-21.3-12.5-33-16.1c-11.8-3.6-24.3-4.6-36.5-4.3
			c-12.3,0.6-24.4,3.2-35.7,7.9c-22.7,9.1-41.7,26.3-52.8,47.2c14.5-18.7,33.8-32.9,55.5-40.1c1.4-0.4,2.7-0.9,4.1-1.3l4.1-1.1
			c2.7-0.8,5.5-1.2,8.3-1.8c5.6-0.9,11.2-1.6,16.9-1.6c11.3,0,22.7,1,33.4,4.4c21.6,6.3,41.3,19.4,55.4,37.3
			c1.8,2.2,3.6,4.4,5.1,6.9l2.3,3.6c0.8,1.2,1.6,2.4,2.3,3.7l4.1,7.6l3.4,8c4.2,10.8,6.7,22.2,8,34
			C365.7,244.3,364.4,232.2,361.3,220.6z"/>
		<linearGradient id="SVGID_10_" gradientUnits="userSpaceOnUse" x1="204.8247" y1="337.8027" x2="339.4846" y2="350.8765">
			<stop  offset="0" style="stop-color:#FFFFFF"/>
			<stop  offset="0.1212" style="stop-color:#FCEA03"/>
			<stop  offset="0.2061" style="stop-color:#FAAB27"/>
			<stop  offset="0.3091" style="stop-color:#FCECAD"/>
			<stop  offset="0.4061" style="stop-color:#FCCA3A"/>
			<stop  offset="0.4788" style="stop-color:#FCCA3A"/>
			<stop  offset="0.6061" style="stop-color:#D48528"/>
			<stop  offset="0.6205" style="stop-color:#DC922C"/>
			<stop  offset="0.6591" style="stop-color:#EDB134"/>
			<stop  offset="0.692" style="stop-color:#F8C339"/>
			<stop  offset="0.7152" style="stop-color:#FCCA3B"/>
			<stop  offset="0.7258" style="stop-color:#F6C038"/>
			<stop  offset="0.7747" style="stop-color:#DD982C"/>
			<stop  offset="0.8" style="stop-color:#D48828"/>
			<stop  offset="1" style="stop-color:#FCEA03"/>
		</linearGradient>
		<path class="st12" d="M311.8,345.7c-10.9,6.1-22.5,10.6-34.5,13.2c-6,1.4-12.1,2.2-18.3,2.6c-6.2,0.5-12.4,0.4-18.6,0
			c-12.4-0.9-24.8-3.7-37.1-7.9c10.5,7.8,23,13,36.1,15.5c6.6,1.2,13.3,1.8,20,1.7c6.7-0.1,13.4-0.8,20-2.3
			c13.2-2.9,25.7-8.5,36.5-16.3c5.4-3.9,10.4-8.4,14.9-13.2c4.4-5,8.3-10.2,11.4-16c-4.8,4.4-9.6,8.7-14.6,12.5
			C322.6,339.3,317.2,342.6,311.8,345.7z"/>
	</g>
</g>
</svg>
